<svg width="247" height="100" viewBox="0 0 247 100" fill="none" xmlns="http://www.w3.org/2000/svg">
<path d="M88.2012 53.6484H104.051V61.6758H100.623L103.846 72.4863L110.086 53.6484H118.67L124.969 73.4531L128.836 61.6758H125.584V53.6484H141.434V61.6758H137.361L129.246 84.1172H120.486L114.129 64.752L107.654 84.1172H99.1289L91.5996 61.6758H88.2012V53.6484ZM144.949 53.6484H158.572V75.9727H162.791V84H144.949V75.9727H149.52V61.6758H144.949V53.6484ZM149.051 43.8633C149.051 43.1406 149.178 42.4668 149.432 41.8418C149.705 41.1973 150.076 40.6406 150.545 40.1719C151.014 39.7031 151.561 39.332 152.186 39.0586C152.83 38.7852 153.523 38.6484 154.266 38.6484C154.969 38.6484 155.633 38.7852 156.258 39.0586C156.883 39.332 157.43 39.7031 157.898 40.1719C158.367 40.6406 158.738 41.1973 159.012 41.8418C159.285 42.4668 159.422 43.1406 159.422 43.8633C159.422 44.5859 159.285 45.2695 159.012 45.9141C158.738 46.5391 158.367 47.0859 157.898 47.5547C157.43 48.0234 156.883 48.3945 156.258 48.668C155.633 48.9414 154.969 49.0781 154.266 49.0781C153.523 49.0781 152.83 48.9414 152.186 48.668C151.561 48.3945 151.014 48.0234 150.545 47.5547C150.076 47.0859 149.705 46.5391 149.432 45.9141C149.178 45.2695 149.051 44.5859 149.051 43.8633ZM193.055 66.5391C193.055 64.8398 192.605 63.5117 191.707 62.5547C190.809 61.5781 189.617 61.0898 188.133 61.0898C187.117 61.0898 186.092 61.3145 185.057 61.7637C184.021 62.2129 183.016 63.0527 182.039 64.2832V75.9727H186.961V84H168.094V75.9727H172.547V61.6758H168.152V53.6484H181.98V56.3145C183.25 55.3184 184.666 54.5371 186.229 53.9707C187.811 53.3848 189.471 53.0918 191.209 53.0918C194.861 53.0918 197.674 54.1172 199.646 56.168C201.619 58.1992 202.605 61.1777 202.605 65.1035V75.9727H206.912V84H193.055V66.5391ZM233.396 82.418C232.303 83.043 231.209 83.4922 230.115 83.7656C229.021 84.0391 227.908 84.1758 226.775 84.1758C224.432 84.1758 222.273 83.7754 220.301 82.9746C218.328 82.1738 216.619 81.0703 215.174 79.6641C213.748 78.2383 212.635 76.5586 211.834 74.625C211.033 72.6914 210.633 70.5918 210.633 68.3262C210.633 66.1973 211.014 64.1953 211.775 62.3203C212.557 60.4258 213.641 58.7754 215.027 57.3691C216.414 55.9434 218.074 54.8203 220.008 54C221.941 53.1797 224.041 52.7598 226.307 52.7402C227.693 52.7598 228.963 52.9062 230.115 53.1797C231.287 53.4531 232.381 53.8242 233.396 54.293V53.6484H242.273V82.7402C242.273 85.2988 241.834 87.5059 240.955 89.3613C240.076 91.2363 238.895 92.7793 237.41 93.9902C235.945 95.2207 234.236 96.1289 232.283 96.7148C230.33 97.3203 228.279 97.623 226.131 97.623C223.475 97.623 221.014 97.2617 218.748 96.5391C216.502 95.8164 214.5 94.8398 212.742 93.6094L216.404 87.1055C217.752 87.9648 219.217 88.6387 220.799 89.127C222.381 89.6348 224.139 89.8887 226.072 89.8887C227.127 89.8887 228.094 89.7715 228.973 89.5371C229.871 89.3027 230.643 88.9023 231.287 88.3359C231.951 87.7891 232.469 87.0469 232.84 86.1094C233.211 85.1719 233.396 83.9902 233.396 82.5645V82.418ZM227.068 76.0605C228.436 76.0605 229.666 75.7188 230.76 75.0352C231.873 74.332 232.752 73.4141 233.396 72.2812L233.455 64.8984C232.791 63.668 231.883 62.6914 230.73 61.9688C229.578 61.2461 228.328 60.875 226.98 60.8555C226.023 60.875 225.086 61.0703 224.168 61.4414C223.25 61.793 222.449 62.3008 221.766 62.9648C221.102 63.6289 220.574 64.4199 220.184 65.3379C219.793 66.2363 219.598 67.2422 219.598 68.3555C219.598 69.5273 219.793 70.5918 220.184 71.5488C220.574 72.5059 221.102 73.3164 221.766 73.9805C222.43 74.6445 223.211 75.1621 224.109 75.5332C225.027 75.8848 226.014 76.0605 227.068 76.0605Z" fill="#006080" fill-opacity="0.8"/>
<path fill-rule="evenodd" clip-rule="evenodd" d="M15.666 94.0001L76.9995 64.1465L72.4851 82.3794C71.6858 85.6186 69.8209 88.4994 67.1868 90.5644C64.5526 92.6294 61.3001 93.7602 57.9457 93.7773L15.666 94.0001Z" fill="#F97FB5"/>
<path fill-rule="evenodd" clip-rule="evenodd" d="M15.666 93.9996L53.2631 88.2047L57.2856 72.1016L15.666 93.9996Z" fill="#AE1857"/>
<path fill-rule="evenodd" clip-rule="evenodd" d="M53.2637 88.2052L77.0001 64.1465L64.5216 43.1709L53.2637 88.2052Z" fill="#E81F76"/>
<path fill-rule="evenodd" clip-rule="evenodd" d="M53.2637 88.2052L77.0001 64.1465L57.2862 72.1021L53.2637 88.2052Z" fill="#AE1857"/>
<path opacity="0.15" fill-rule="evenodd" clip-rule="evenodd" d="M53.2631 88.2055L15.666 94.0005L51.0215 93.8952C52.3655 93.8895 53.6892 93.5694 54.8857 92.9606C56.0821 92.3518 57.1175 91.4716 57.9083 90.391L76.9933 64.1592L53.2631 88.2055Z" fill="#131529"/>
<path fill-rule="evenodd" clip-rule="evenodd" d="M61.7012 54.4573L77.0003 64.1465L64.5219 43.1709L61.7012 54.4573Z" fill="#F97FB5"/>
<path opacity="0.15" fill-rule="evenodd" clip-rule="evenodd" d="M64.5216 43.1709L53.2637 88.2052L67.965 48.9596L64.5216 43.1709Z" fill="#131529"/>
<path opacity="0.15" fill-rule="evenodd" clip-rule="evenodd" d="M64.5216 43.1709L53.2637 88.2052L65.904 45.505L64.5216 43.1709Z" fill="#131529"/>
<path fill-rule="evenodd" clip-rule="evenodd" d="M15.666 93.9997L51.2893 79.6672L48.1759 76.8936L15.666 93.9997Z" fill="#F97FB5"/>
<path fill-rule="evenodd" clip-rule="evenodd" d="M15.666 94.0005L51.2893 79.668L53.2631 83.8037L15.666 94.0005Z" fill="#E81F76"/>
<path opacity="0.15" fill-rule="evenodd" clip-rule="evenodd" d="M35.748 83.4317L53.2639 88.205L48.0459 76.9434L35.748 83.4317Z" fill="#131529"/>
<path opacity="0.15" fill-rule="evenodd" clip-rule="evenodd" d="M45.8291 78.1259L53.2638 88.205L48.0458 76.9434L45.8291 78.1259Z" fill="#131529"/>
<path fill-rule="evenodd" clip-rule="evenodd" d="M0 0L53.2636 88.2051L64.5216 43.1708L0 0Z" fill="#00B2E3"/>
<path fill-rule="evenodd" clip-rule="evenodd" d="M0 0L61.7009 54.4572L64.5216 43.1708L0 0Z" fill="#96DAEA"/>
<path fill-rule="evenodd" clip-rule="evenodd" d="M0 0L53.2636 88.2051C54.4778 82.7198 56.0345 77.352 57.3484 71.8729L0 0Z" fill="#0069A7"/>
</svg>
